<svg xmlns="http://www.w3.org/2000/svg" version="1.1" xmlns:xlink="http://www.w3.org/1999/xlink" xmlns:svgjs="http://svgjs.dev/svgjs" width="32" height="32"><svg id="SvgjsSvg1483" xmlns="http://www.w3.org/2000/svg" version="1.1" viewBox="0 0 32 32">
  <!-- Generator: Adobe Illustrator 29.3.1, SVG Export Plug-In . SVG Version: 2.1.0 Build 151)  -->
  <path d="M.39,3.33h2.04s.36,2.01.36,2.01h.2c.85-1.6,2.17-2.4,3.95-2.4,1.86,0,3.09.83,3.68,2.5.44-.81,1.04-1.43,1.79-1.86.76-.43,1.56-.64,2.42-.64,2.72,0,4.08,1.74,4.08,5.23v12.46s-2.69,0-2.69,0v-12.27c0-1.12-.2-1.9-.6-2.35-.39-.45-.94-.67-1.64-.67-.83,0-1.53.43-2.1,1.28-.57.86-.85,2.01-.85,3.45v10.56s-2.69,0-2.69,0v-12.27c0-1.12-.2-1.9-.6-2.35-.39-.45-.94-.67-1.64-.67-.83,0-1.54.43-2.12,1.28-.58.86-.87,2.01-.87,3.45v10.56s-2.69,0-2.69,0V3.33Z"></path>
  <path d="M21.83,26.86c-.95-1.46-1.43-3.74-1.43-6.86,0-3.11.48-5.4,1.45-6.86.96-1.46,2.45-2.19,4.47-2.19,1.84,0,3.18.57,4.03,1.71.84,1.14,1.27,2.84,1.27,5.1h-2.8c0-1.56-.18-2.68-.54-3.37-.36-.69-1.01-1.04-1.96-1.04-1.05,0-1.83.5-2.33,1.5-.5,1-.76,2.5-.76,4.52v1.25c0,2.02.25,3.52.74,4.52.49,1,1.28,1.5,2.35,1.5.94,0,1.62-.36,2.02-1.09.41-.72.61-1.83.61-3.32h2.66c0,1.97-.43,3.6-1.3,4.88-.87,1.28-2.2,1.92-3.99,1.92-2.04,0-3.54-.73-4.49-2.19Z"></path>
  <circle cx="17.58" cy="27.71" r="1.36"></circle>
  <circle cx="21.8" cy="4.72" r="1.36"></circle>
</svg><style>@media (prefers-color-scheme: light) { :root { filter: none; } }
@media (prefers-color-scheme: dark) { :root { filter: none; } }
</style></svg>