<?xml version="1.0" encoding="UTF-8"?>
<svg id="Calque_1" xmlns="http://www.w3.org/2000/svg" xmlns:xlink="http://www.w3.org/1999/xlink" version="1.1" viewBox="0 0 16 16">
  <!-- Generator: Adobe Illustrator 29.1.0, SVG Export Plug-In . SVG Version: 2.1.0 Build 142)  -->
  <defs>
    <style>
      .st0 {
        fill: none;
      }

      .st1 {
        fill: #1d1d1b;
      }

      .st2 {
        clip-path: url(#clippath-1);
      }

      .st3 {
        clip-path: url(#clippath-2);
      }

      .st4 {
        fill: #fff;
      }

      .st5 {
        clip-path: url(#clippath);
      }
    </style>
    <clipPath id="clippath">
      <rect class="st0" x="-48" y="24.68" width="78" height="20"/>
    </clipPath>
    <clipPath id="clippath-1">
      <rect class="st0" x="-51.83" y="-40.29" width="156.33" height="221.09"/>
    </clipPath>
    <clipPath id="clippath-2">
      <rect class="st0" x="-51.83" y="-40.29" width="156.33" height="221.09"/>
    </clipPath>
  </defs>
  <circle cx="8" cy="8" r="8"/>
  <circle class="st4" cx="11" cy="8" r="3"/>
  <g class="st5">
    <g class="st2">
      <g class="st3">
        <path class="st1" d="M.3,11.11c1.69,0,1.69-2.63,0-2.63s-1.69,2.63,0,2.63"/>
        <path class="st1" d="M5.54,2.91c1.69,0,1.69-2.63,0-2.63s-1.69,2.63,0,2.63"/>
        <path class="st1" d="M1.33,7.36c1.69,0,1.69-2.63,0-2.63s-1.69,2.63,0,2.63"/>
        <path class="st1" d="M4.58,10.14c1.69,0,1.69-2.63,0-2.63s-1.69,2.63,0,2.63"/>
        <path class="st1" d="M-.19.27c-.09.23-.18.46-.27.69,0,0,.13-.03.11-.03.09-.02.18-.05.27-.07.09-.02.18-.05.27-.07.02,0,.04-.01.06-.02.02,0,.03,0,.05-.02.09-.23.18-.46.27-.69,0,0-.13.03-.11.03-.09.02-.18.05-.27.07-.09.02-.18.05-.27.07l-.06.02s-.03,0-.05.02"/>
        <path class="st1" d="M.85,1.28c-.16.14-.27.33-.32.53,0,0,.13-.03.11-.03.09-.02.18-.05.27-.07.09-.02.18-.05.27-.07.02,0,.04-.01.06-.02.02,0,.03,0,.05-.02.05-.2.16-.39.32-.53-.01,0-.02,0-.03,0-.03,0-.05.01-.08.02-.09.02-.18.05-.27.07-.09.02-.18.05-.27.07-.02,0-.04.01-.06.02-.02,0-.03,0-.05.02"/>
        <path class="st1" d="M2.16,2.05c-.11.2-.23.39-.34.59.01,0,.02,0,.03,0,.03,0,.05-.01.08-.02.09-.02.18-.05.27-.07.09-.02.18-.05.27-.07.02,0,.04-.01.06-.02.02,0,.03,0,.05-.02.11-.2.23-.39.34-.59-.01,0-.02,0-.03,0-.03,0-.05.01-.08.02-.09.02-.18.05-.27.07-.09.02-.18.05-.27.07-.02,0-.04.01-.06.02-.02,0-.03,0-.05.02"/>
        <path class="st1" d="M3.41,3.15c-.3.1-.54.33-.63.64,0,0,.13-.03.11-.03.09-.02.18-.05.27-.07.09-.02.18-.05.27-.07.02,0,.04-.01.06-.02.02,0,.03,0,.05-.02.08-.29.31-.52.59-.62,0,0,0,0-.01,0,0,0,.02,0,.03,0,.05-.02-.06.01-.04,0-.08.02-.15.04-.23.06-.16.04-.31.08-.47.13"/>
        <path class="st1" d="M4.42,3.72c-.1.21-.21.43-.31.64,0,0,.12-.03.11-.03.09-.02.18-.05.27-.07.09-.02.18-.05.27-.07.02,0,.04-.01.06-.02.02,0,.03,0,.05-.02.1-.21.2-.43.31-.64,0,0-.12.03-.11.03-.09.02-.18.05-.27.07-.09.02-.18.05-.27.07l-.06.02s-.03,0-.05.02"/>
        <path class="st1" d="M5.5,4.63c-.02.23-.1.45-.22.65.01,0,.02,0,.03,0,.03,0,.05-.01.08-.02.09-.02.18-.05.27-.07.09-.02.18-.05.27-.07.02,0,.04-.01.06-.02.02,0,.03,0,.05-.02.13-.19.2-.42.22-.65,0,0-.13.03-.11.03-.09.02-.18.05-.27.07-.09.02-.18.05-.27.07-.01,0-.11.02-.11.03"/>
        <path class="st1" d="M-.39,12.64c-.07.31-.22.6-.43.84,0,0,.11-.03.11-.03.09-.02.18-.05.27-.07.09-.02.18-.05.27-.07.02,0,.04-.01.06-.02.02,0,.03,0,.05-.02.22-.23.37-.52.43-.83,0,0-.13.03-.11.03-.09.02-.18.05-.27.07-.09.02-.18.05-.27.07-.01,0-.11.02-.11.03"/>
        <path class="st1" d="M1.02,13.63c-.09.16-.18.32-.27.47.01,0,.02,0,.03,0,.03,0,.05-.01.08-.02.09-.02.18-.05.27-.07.09-.02.18-.05.27-.07.02,0,.04-.01.06-.02.02,0,.03,0,.05-.02.09-.16.18-.32.27-.47-.01,0-.02,0-.03,0-.03,0-.05.01-.08.02-.09.02-.18.05-.27.07-.09.02-.18.05-.27.07-.02,0-.04.01-.06.02-.02,0-.03,0-.05.02"/>
        <path class="st1" d="M11.91,18.18c1.69,0,1.69-2.63,0-2.63s-1.69,2.63,0,2.63"/>
        <path class="st1" d="M1.6,15.08c1.69,0,1.69-2.63,0-2.63s-1.69,2.63,0,2.63"/>
        <path class="st1" d="M-.31,17.45c1.69,0,1.69-2.63,0-2.63s-1.69,2.63,0,2.63"/>
        <path class="st1" d="M5.9,15.94c1.69,0,1.69-2.63,0-2.63s-1.69,2.63,0,2.63"/>
        <path class="st1" d="M10.52,14.75c.07-.01.14-.02.22-.04.13-.02.26-.06.38-.1.09-.02.18-.05.27-.07.01,0,.1-.04.11-.03-.36-.27-.75-.5-1.16-.69-.01,0-.11.03-.11.03-.09.02-.18.05-.27.07-.09.02-.18.05-.27.07-.02,0-.1.04-.11.03.41.19.8.42,1.16.69.25-.07.51-.14.76-.2-.07.01-.14.02-.22.04-.13.02-.26.06-.38.1-.09.02-.18.05-.27.07-.04.01-.07.03-.11.03"/>
        <path class="st1" d="M10.44,15.25l-.86-.5s-.12.03-.11.03c-.09.02-.18.05-.27.07-.09.02-.18.05-.27.07-.02,0-.04.01-.06.02-.02,0-.03,0-.05.02l.86.5s.12-.03.11-.03c.09-.02.18-.05.27-.07.09-.02.18-.05.27-.07.02,0,.04-.01.06-.02.02,0,.03,0,.05-.02"/>
        <path class="st1" d="M9.74,16.39c-.26-.14-.49-.32-.7-.52,0,0-.12.03-.11.03-.09.02-.18.05-.27.07-.09.02-.18.05-.27.07-.01,0-.11.04-.11.03.21.2.44.38.7.52.01,0,.12-.03.11-.03.09-.02.18-.05.27-.07.09-.02.18-.05.27-.07.02,0,.04-.01.06-.02.02,0,.03,0,.05-.02"/>
      </g>
    </g>
  </g>
</svg>