<?xml version="1.0" encoding="UTF-8"?>
<svg id="Calque_1" xmlns="http://www.w3.org/2000/svg" xmlns:xlink="http://www.w3.org/1999/xlink" version="1.1" viewBox="0 0 16 16">
  <!-- Generator: Adobe Illustrator 29.3.1, SVG Export Plug-In . SVG Version: 2.1.0 Build 151)  -->
  <defs>
    <style>
      .st0 {
        fill: none;
      }

      .st1 {
        fill: #1d1d1b;
      }

      .st2 {
        clip-path: url(#clippath-1);
      }

      .st3 {
        clip-path: url(#clippath-2);
      }

      .st4 {
        fill: #fff;
      }

      .st5 {
        clip-path: url(#clippath);
      }
    </style>
    <clipPath id="clippath">
      <rect class="st0" x="-31" y="24.68" width="78" height="20"/>
    </clipPath>
    <clipPath id="clippath-1">
      <rect class="st0" x="-34.83" y="-40.29" width="156.33" height="221.09"/>
    </clipPath>
    <clipPath id="clippath-2">
      <rect class="st0" x="-34.83" y="-40.29" width="156.33" height="221.09"/>
    </clipPath>
  </defs>
  <g class="st5">
    <g class="st2">
      <g class="st3">
        <path class="st1" d="M-.11,11.4s.07.09.11.13c.12.13.26.22.42.27.16.08.33.12.51.11.18,0,.35-.03.51-.11.16-.05.3-.14.42-.27.07-.09.14-.18.21-.27.12-.2.18-.43.18-.66-.02-.12-.03-.23-.05-.35-.06-.22-.17-.42-.34-.58-.04-.04-.07-.09-.11-.13-.12-.13-.26-.22-.42-.27-.16-.08-.33-.12-.51-.11-.18,0-.35.03-.51.11-.16.05-.3.14-.42.27-.07.09-.14.18-.21.27-.12.2-.18.43-.18.66.02.12.03.23.05.35.06.22.17.42.34.58"/>
        <path class="st1" d="M4.12,13.86c1.69,0,1.69-2.63,0-2.63s-1.69,2.63,0,2.63"/>
        <path class="st1" d="M7.45,15.69c1.69,0,1.69-2.63,0-2.63s-1.69,2.63,0,2.63"/>
        <path class="st1" d="M10.19,15.43s-.09.07-.13.11c-.13.12-.22.26-.27.42-.08.16-.12.33-.11.51,0,.18.03.35.11.51.05.16.14.3.27.42.09.07.18.14.27.21.2.12.43.18.66.18.12-.02.23-.03.35-.05.22-.06.42-.17.58-.34l.13-.11c.13-.12.22-.26.27-.42.08-.16.12-.33.11-.51,0-.18-.03-.35-.11-.51-.05-.16-.14-.3-.27-.42-.09-.07-.18-.14-.27-.21-.2-.12-.43-.18-.66-.18-.12.02-.23.03-.35.05-.22.06-.42.17-.58.34"/>
        <path class="st1" d="M1.93,2.64C3.62,2.64,3.62.01,1.93.01S.24,2.64,1.93,2.64"/>
        <path class="st1" d="M6.08,4.66c1.69,0,1.69-2.63,0-2.63s-1.69,2.63,0,2.63"/>
        <path class="st1" d="M9.87,6.78c1.69,0,1.69-2.63,0-2.63s-1.69,2.63,0,2.63"/>
        <path class="st1" d="M13.43,8.6c.16.02.32.03.48.05.18,0,.35-.03.51-.11.16-.05.3-.14.42-.27.23-.23.4-.6.38-.93-.02-.34-.13-.69-.38-.93-.09-.07-.18-.14-.27-.21-.2-.12-.43-.18-.66-.18-.16-.02-.32-.03-.48-.05-.18,0-.35.03-.51.11-.16.05-.3.14-.42.27-.23.23-.4.6-.38.93.02.34.13.69.38.93.09.07.18.14.27.21.2.12.43.18.66.18"/>
        <path class="st1" d="M3.38,7.91s-.09.07-.13.11c-.13.12-.22.26-.27.42-.08.16-.12.33-.11.51,0,.18.03.35.11.51.05.16.14.3.27.42.09.07.18.14.27.21.2.12.43.18.66.18.12-.02.23-.03.35-.05.22-.06.42-.17.58-.34l.13-.11c.13-.12.22-.26.27-.42.08-.16.12-.33.11-.51,0-.18-.03-.35-.11-.51-.05-.16-.14-.3-.27-.42-.09-.07-.18-.14-.27-.21-.2-.12-.43-.18-.66-.18-.12.02-.23.03-.35.05-.22.06-.42.17-.58.34"/>
        <path class="st1" d="M7.74,12.12c1.69,0,1.69-2.63,0-2.63s-1.69,2.63,0,2.63"/>
        <path class="st1" d="M11.53,14.23c1.69,0,1.69-2.63,0-2.63s-1.69,2.63,0,2.63"/>
        <path class="st1" d="M14.81,16.54c1.69,0,1.69-2.63,0-2.63s-1.69,2.63,0,2.63"/>
        <path class="st1" d="M6.22.12c1.69,0,1.69-2.63,0-2.63S4.53.12,6.22.12"/>
        <path class="st1" d="M10.24,2.25c1.69,0,1.69-2.63,0-2.63s-1.69,2.63,0,2.63"/>
        <path class="st1" d="M14.48,4.64c1.69,0,1.69-2.63,0-2.63s-1.69,2.63,0,2.63"/>
        <path class="st1" d="M15.74-.33c-.06.23-.17.45-.31.64.01,0,.02,0,.03,0,.03,0,.05-.01.08-.02.09-.02.18-.05.27-.07.09-.02.18-.05.27-.07.02,0,.04-.01.06-.02.02,0,.03,0,.05-.02.15-.19.25-.41.31-.64,0,0-.13.03-.11.03-.09.02-.18.05-.27.07-.09.02-.18.05-.27.07l-.06.02s-.03,0-.05.02"/>
        <path class="st1" d="M1.23,4.51c-.07.24-.16.47-.28.69,0,0,.12-.03.11-.03.09-.02.18-.05.27-.07.09-.02.18-.05.27-.07l.06-.02s.03,0,.05-.02c.12-.22.21-.45.28-.69,0,0-.13.03-.11.03-.09.02-.18.05-.27.07-.09.02-.18.05-.27.07-.02,0-.04.01-.06.02-.02,0-.03,0-.05.02"/>
        <path class="st1" d="M2.4,5.12l-.23.75s.13-.03.11-.03c.09-.02.18-.05.27-.07.09-.02.18-.05.27-.07.02,0,.11-.02.11-.03.08-.25.15-.5.23-.75,0,0-.13.03-.11.03-.09.02-.18.05-.27.07-.09.02-.18.05-.27.07-.02,0-.11.02-.11.03"/>
        <path class="st1" d="M3.54,5.57c-.05.23-.1.47-.16.7,0,0,.13-.03.11-.03.09-.02.18-.05.27-.07.09-.02.18-.05.27-.07.01,0,.11-.02.11-.03.05-.23.1-.47.15-.7,0,0-.13.03-.11.03-.09.02-.18.05-.27.07-.09.02-.18.05-.27.07-.01,0-.11.02-.11.03"/>
        <path class="st1" d="M5.07,6.16c-.12.23-.24.46-.36.69,0,0,.12-.03.11-.03.09-.02.18-.05.27-.07.09-.02.18-.05.27-.07.02,0,.04-.01.06-.02.02,0,.03,0,.05-.02.12-.23.24-.46.36-.69,0,0-.12.03-.11.03-.09.02-.18.05-.27.07-.09.02-.18.05-.27.07l-.06.02s-.03,0-.05.02"/>
        <path class="st1" d="M6.5,6.84c-.03.15-.06.3-.09.45,0,0,.13-.03.11-.03.09-.02.18-.05.27-.07.09-.02.18-.05.27-.07.02,0,.04-.01.06-.02.02,0,.03,0,.05-.02l.09-.45s-.13.03-.11.03c-.09.02-.18.05-.27.07-.09.02-.18.05-.27.07-.02,0-.04.01-.06.02-.02,0-.03,0-.05.02"/>
        <path class="st1" d="M7.99,7.58c-.09.22-.21.43-.34.62.01,0,.02,0,.03,0,.03,0,.05-.01.08-.02.09-.02.18-.05.27-.07.09-.02.18-.05.27-.07.02,0,.04-.01.06-.02.02,0,.03,0,.05-.02.14-.19.25-.4.34-.62,0,0-.13.03-.11.03-.09.02-.18.05-.27.07-.09.02-.18.05-.27.07-.02,0-.04.01-.06.02-.02,0-.03,0-.05.02"/>
        <path class="st1" d="M8.96,8.16c.01.21-.05.43-.17.6.01,0,.02,0,.03,0,.03,0,.05-.01.08-.02.09-.02.18-.05.27-.07.09-.02.18-.05.27-.07.02,0,.04-.01.06-.02.02,0,.03,0,.05-.02.12-.17.19-.39.17-.6,0,0-.13.03-.11.03-.09.02-.18.05-.27.07-.09.02-.18.05-.27.07-.01,0-.11.03-.11.03"/>
        <path class="st1" d="M10.02,8.66c-.06.27-.11.54-.17.81,0,0,.13-.03.11-.03.09-.02.18-.05.27-.07.09-.02.18-.05.27-.07.01,0,.11-.02.11-.03l.17-.81s-.13.03-.11.03c-.09.02-.18.05-.27.07-.09.02-.18.05-.27.07-.01,0-.11.02-.11.03"/>
        <path class="st1" d="M11.56,9.36c-.12.23-.23.46-.35.69,0,0,.12-.03.11-.03.09-.02.18-.05.27-.07.09-.02.18-.05.27-.07.02,0,.04-.01.06-.02.02,0,.03,0,.05-.02l.35-.69s-.12.03-.11.03c-.09.02-.18.05-.27.07-.09.02-.18.05-.27.07-.02,0-.04.01-.06.02-.02,0-.03,0-.05.02"/>
        <path class="st1" d="M12.75,10.27c-.02.21-.09.41-.21.59.01,0,.02,0,.03,0,.03,0,.05-.01.08-.02.09-.02.18-.05.27-.07.09-.02.18-.05.27-.07.02,0,.04-.01.06-.02.02,0,.03,0,.05-.02.12-.18.19-.38.21-.59,0,0-.13.03-.11.03-.09.02-.18.05-.27.07-.09.02-.18.05-.27.07-.01,0-.11.02-.11.03"/>
        <path class="st1" d="M14.07,10.99c-.07.22-.14.43-.21.65,0,0,.13-.03.11-.03.09-.02.18-.05.27-.07.09-.02.18-.05.27-.07.02,0,.04-.01.06-.02.02,0,.03,0,.05-.02.07-.22.14-.43.21-.65,0,0-.13.03-.11.03-.09.02-.18.05-.27.07-.09.02-.18.05-.27.07l-.06.02s-.03,0-.05.02"/>
        <path class="st1" d="M15.45,12.03c-.04.2-.1.4-.2.58,0,0,.12-.03.11-.03.09-.02.18-.05.27-.07.09-.02.18-.05.27-.07.02,0,.04-.01.06-.02.02,0,.03,0,.05-.02.1-.18.16-.38.2-.58,0,0-.13.03-.11.03-.09.02-.18.05-.27.07-.09.02-.18.05-.27.07-.02,0-.04.01-.06.02-.02,0-.03,0-.05.02"/>
        <path class="st1" d="M.85,17.15c1.69,0,1.69-2.63,0-2.63s-1.69,2.63,0,2.63"/>
        <path class="st1" d="M16.69,17.45c1.69,0,1.69-2.63,0-2.63s-1.69,2.63,0,2.63"/>
      </g>
    </g>
  </g>
  <g>
    <circle cx="8" cy="8" r="8"/>
    <g>
      <path class="st4" d="M10.85,8.02c-.43.16-.86.24-1.28.3-.43.09-.86.07-1.28.11-.43.04-.86-.03-1.28-.04-.43-.03-.86-.11-1.28-.2v-.22c1.71-.03,3.42-.02,5.14,0v.05Z"/>
      <polygon class="st4" points="6.71 7.15 5.87 8 6.71 8.85 5.99 8.85 5.15 8 5.99 7.15 6.71 7.15"/>
    </g>
  </g>
</svg>