<?xml version="1.0" encoding="UTF-8"?>
<svg id="Calque_1" xmlns="http://www.w3.org/2000/svg" xmlns:xlink="http://www.w3.org/1999/xlink" version="1.1" viewBox="0 0 16 16">
  <!-- Generator: Adobe Illustrator 29.1.0, SVG Export Plug-In . SVG Version: 2.1.0 Build 142)  -->
  <defs>
    <style>
      .st0 {
        fill: none;
      }

      .st1 {
        fill: #1d1d1b;
      }

      .st2 {
        clip-path: url(#clippath-1);
      }

      .st3 {
        clip-path: url(#clippath-2);
      }

      .st4 {
        fill: #fff;
      }

      .st5 {
        clip-path: url(#clippath);
      }
    </style>
    <clipPath id="clippath">
      <rect class="st0" x="-11" y="24.68" width="78" height="20"/>
    </clipPath>
    <clipPath id="clippath-1">
      <rect class="st0" x="-14.83" y="-40.29" width="156.33" height="221.09"/>
    </clipPath>
    <clipPath id="clippath-2">
      <rect class="st0" x="-14.83" y="-40.29" width="156.33" height="221.09"/>
    </clipPath>
  </defs>
  <circle cx="8" cy="8" r="8"/>
  <circle class="st4" cx="8" cy="8" r="3"/>
  <g class="st5">
    <g class="st2">
      <g class="st3">
        <path class="st1" d="M6.54,6.78s.09-.07.13-.11c.13-.12.22-.26.27-.42.08-.16.12-.33.11-.51,0-.18-.03-.35-.11-.51-.05-.16-.14-.3-.27-.42-.09-.07-.18-.14-.27-.21-.2-.12-.43-.18-.66-.18-.12.02-.23.03-.35.05-.22.06-.42.17-.58.34-.04.04-.09.07-.13.11-.13.12-.22.26-.27.42-.08.16-.12.33-.11.51,0,.18.03.35.11.51.05.16.14.3.27.42.09.07.18.14.27.21.2.12.43.18.66.18.12-.02.23-.03.35-.05.22-.06.42-.17.58-.34"/>
        <path class="st1" d="M10.66,8.42c1.69,0,1.69-2.63,0-2.63s-1.69,2.63,0,2.63"/>
        <path class="st1" d="M14.66,7.55s-.09.07-.13.11c-.13.12-.22.26-.27.42-.08.16-.12.33-.11.51,0,.18.03.35.11.51.05.16.14.3.27.42.09.07.18.14.27.21.2.12.43.18.66.18.12-.02.23-.03.35-.05.22-.06.42-.18.58-.34.04-.04.09-.07.13-.11.13-.12.22-.26.27-.42.08-.16.12-.33.11-.51,0-.18-.03-.35-.11-.51-.05-.16-.14-.3-.27-.42l-.27-.21c-.2-.12-.43-.18-.66-.18-.12.02-.23.03-.35.05-.22.06-.42.17-.58.34"/>
        <path class="st1" d="M2.19,4.97c1.69,0,1.69-2.63,0-2.63s-1.69,2.63,0,2.63"/>
        <path class="st1" d="M5.34,3.19c1.69,0,1.69-2.63,0-2.63s-1.69,2.63,0,2.63"/>
        <path class="st1" d="M9.03,4.93c1.69,0,1.69-2.63,0-2.63s-1.69,2.63,0,2.63"/>
        <path class="st1" d="M13.59,6.39c1.69,0,1.69-2.63,0-2.63s-1.69,2.63,0,2.63"/>
        <path class="st1" d="M-.54,2.18c-.21.17-.41.35-.62.52.01,0,.02,0,.03,0,.03,0,.05-.01.08-.02.09-.02.18-.05.27-.07.09-.02.18-.05.27-.07.02,0,.04-.01.06-.02.02,0,.03,0,.05-.02.21-.17.41-.35.62-.52-.01,0-.02,0-.03,0-.03,0-.05.01-.08.02-.09.02-.18.05-.27.07-.09.02-.18.05-.27.07-.02,0-.04.01-.06.02-.02,0-.03,0-.05.02"/>
        <path class="st1" d="M-.34,3.43c-.14.18-.3.33-.48.45.01,0,.02,0,.03,0,.03,0,.05-.01.08-.02.09-.02.18-.05.27-.07.09-.02.18-.05.27-.07.02,0,.04-.01.06-.02.02,0,.03,0,.05-.02.18-.12.35-.27.48-.45-.01,0-.02,0-.03,0-.03,0-.05.01-.08.02-.09.02-.18.05-.27.07-.09.02-.18.05-.27.07-.02,0-.04.01-.06.02-.02,0-.03,0-.05.02"/>
        <path class="st1" d="M.18,4.75c-.16.17-.35.32-.56.44.01,0,.02,0,.03,0,.03,0,.05-.01.08-.02.09-.02.18-.05.27-.07.09-.02.18-.05.27-.07.02,0,.04-.01.06-.02.02,0,.03,0,.05-.02.21-.12.4-.27.56-.44-.01,0-.02,0-.03,0-.03,0-.05.01-.08.02-.09.02-.18.05-.27.07-.09.02-.18.05-.27.07-.02,0-.04.01-.06.02-.02,0-.03,0-.05.02"/>
        <path class="st1" d="M.12,6.17c-.21.12-.41.24-.62.36.01,0,.02,0,.03,0,.03,0,.05-.01.08-.02.09-.02.18-.05.27-.07.09-.02.18-.05.27-.07.03,0,.08-.01.11-.03.21-.12.41-.24.62-.36-.01,0-.02,0-.03,0-.03,0-.05.01-.08.02-.09.02-.18.05-.27.07-.09.02-.18.05-.27.07-.03,0-.08.01-.11.03"/>
        <path class="st1" d="M7.14-.51s0-.04.03-.05c-.06.02-.13.04-.19.05,0,0,0,0,0,0-.19.05-.38.1-.57.15.13-.02.07.22.06.28-.02.15-.04.29-.05.44,0,0,.13-.03.11-.03.09-.02.18-.05.27-.07.09-.02.18-.05.27-.07.01,0,.11-.02.11-.03.02-.2.06-.4.07-.6,0-.03,0-.07-.02-.1-.02-.03-.05-.03-.08-.02-.14.03-.28.07-.42.11-.11.03-.22.05-.32.09-.03,0-.05.02-.04.05,0,0,.76-.2.76-.2"/>
        <path class="st1" d="M7.73.06c.05.2.06.42.03.62,0,0,.13-.03.11-.03.09-.02.18-.05.27-.07.09-.02.18-.05.27-.07.01,0,.11-.02.11-.03.04-.21.03-.42-.03-.62,0,0-.76.2-.76.2"/>
        <path class="st1" d="M9.27.45c-.09.15-.11.34-.04.51,0,0,.13-.03.11-.03.09-.02.18-.05.27-.07.09-.02.18-.05.27-.07.01,0,.11-.03.11-.03-.07-.17-.05-.36.04-.51-.01,0-.02,0-.03,0-.03,0-.05.01-.08.02-.09.02-.18.05-.27.07-.09.02-.18.05-.27.07-.02,0-.04.01-.06.02-.02,0-.03,0-.05.02"/>
        <path class="st1" d="M10.9.68c.09.16.14.35.14.53,0,0,.13-.03.11-.03.09-.02.18-.05.27-.07.09-.02.18-.05.27-.07.01,0,.11-.03.11-.03,0-.19-.05-.37-.14-.53,0,0-.13.03-.11.03-.09.02-.18.05-.27.07-.09.02-.18.05-.27.07-.01,0-.11.03-.11.03"/>
        <path class="st1" d="M12.34,1.06c-.08.28-.09.58-.02.87,0,0,.76-.19.76-.2-.06-.29-.06-.59.02-.87,0,0-.13.03-.11.03-.09.02-.18.05-.27.07-.09.02-.18.05-.27.07-.01,0-.11.02-.11.03"/>
        <path class="st1" d="M14.17,1.88c-.04.22-.07.44-.11.66,0,0,.13-.03.11-.03.09-.02.18-.05.27-.07.09-.02.18-.05.27-.07.01,0,.11-.02.11-.03.04-.22.07-.44.11-.66,0,0-.13.03-.11.03-.09.02-.18.05-.27.07-.09.02-.18.05-.27.07-.01,0-.11.02-.11.03"/>
        <path class="st1" d="M15.97,2.44c0,.25-.05.49-.17.71,0,0,.12-.03.11-.03.09-.02.18-.05.27-.07.09-.02.18-.05.27-.07.02,0,.04-.01.06-.02.02,0,.03,0,.05-.02.12-.22.17-.46.17-.71,0,0-.13.03-.11.03-.09.02-.18.05-.27.07-.09.02-.18.05-.27.07-.01,0-.11.03-.11.03"/>
        <path class="st1" d="M.78,16.21c1.69,0,1.69-2.63,0-2.63s-1.69,2.63,0,2.63"/>
        <path class="st1" d="M3.78,10.37c.16,0,.32.02.48.03.18,0,.35-.03.51-.11.16-.05.3-.14.42-.27.23-.23.4-.6.38-.93-.02-.34-.13-.69-.38-.93-.09-.07-.18-.14-.27-.21-.2-.12-.43-.18-.66-.18-.16,0-.32-.02-.48-.03-.18,0-.35.03-.51.11-.16.05-.3.14-.42.27-.23.23-.4.6-.38.93.02.34.13.69.38.93.09.07.18.14.27.21.2.12.43.18.66.18"/>
        <path class="st1" d="M7.66,12.82c1.69,0,1.69-2.63,0-2.63s-1.69,2.63,0,2.63"/>
        <path class="st1" d="M10.45,15.33c1.69,0,1.69-2.63,0-2.63s-1.69,2.63,0,2.63"/>
        <path class="st1" d="M13.59,17.99c1.69,0,1.69-2.63,0-2.63s-1.69,2.63,0,2.63"/>
        <path class="st1" d="M1.43,12.78c1.69,0,1.69-2.63,0-2.63s-1.69,2.63,0,2.63"/>
        <path class="st1" d="M4.66,17.13c1.69,0,1.69-2.63,0-2.63s-1.69,2.63,0,2.63"/>
        <path class="st1" d="M8.04,9.61c1.69,0,1.69-2.63,0-2.63s-1.69,2.63,0,2.63"/>
        <path class="st1" d="M11.79,12.2c1.69,0,1.69-2.63,0-2.63s-1.69,2.63,0,2.63"/>
        <path class="st1" d="M16.72,17.77c1.69,0,1.69-2.63,0-2.63s-1.69,2.63,0,2.63"/>
        <path class="st1" d="M14.58,14.71c1.69,0,1.69-2.63,0-2.63s-1.69,2.63,0,2.63"/>
        <path class="st1" d="M-.56,6.57c-.07.11-.17.18-.29.23,0,0,0,0,.01,0,0,0,0,0-.01,0,0,0,0,0,0,0-.06.02,0,0,.15-.04-.06.02-.12.03-.17.05-.02,0-.02,0,0,0,.02,0,.03,0,.05-.01.17-.04.35-.09.52-.14.13-.03.26-.06.37-.14.06-.04.11-.09.15-.16-.01,0-.02,0-.03,0-.03,0-.05.01-.08.02-.09.02-.18.05-.27.07-.09.02-.18.05-.27.07-.02,0-.04.01-.06.02-.02,0-.03,0-.05.02"/>
        <path class="st1" d="M.1,7.36c-.13.14-.26.28-.39.41.01,0,.02,0,.03,0,.03,0,.05-.01.08-.02.09-.02.18-.05.27-.07.09-.02.18-.05.27-.07.02,0,.04-.01.06-.02.02,0,.03,0,.05-.02.13-.14.26-.28.39-.41-.01,0-.02,0-.03,0-.03,0-.05.01-.08.02-.09.02-.18.05-.27.07-.09.02-.18.05-.27.07-.02,0-.04.01-.06.02-.02,0-.03,0-.05.02"/>
        <path class="st1" d="M.94,8.28c-.16.18-.32.36-.48.54.01,0,.02,0,.03,0,.03,0,.05-.01.08-.02.09-.02.18-.05.27-.07.09-.02.18-.05.27-.07.02,0,.04-.01.06-.02.02,0,.03,0,.05-.02l.48-.54s-.02,0-.03,0c-.03,0-.05.01-.08.02-.09.02-.18.05-.27.07-.09.02-.18.05-.27.07-.02,0-.04.01-.06.02-.02,0-.03,0-.05.02"/>
        <path class="st1" d="M1.83,9.48c-.1.15-.2.3-.29.45.01,0,.02,0,.03,0,.03,0,.05-.01.08-.02.09-.02.18-.05.27-.07.09-.02.18-.05.27-.07.02,0,.04-.01.06-.02.02,0,.03,0,.05-.02.1-.15.2-.3.29-.45-.01,0-.02,0-.03,0-.03,0-.05.01-.08.02-.09.02-.18.05-.27.07-.09.02-.18.05-.27.07-.02,0-.04.01-.06.02-.02,0-.03,0-.05.02"/>
        <path class="st1" d="M3.1,10.97l-.25.34s.02,0,.03,0c.03,0,.05-.01.08-.02.09-.02.18-.05.27-.07.09-.02.18-.05.27-.07.02,0,.04-.01.06-.02.02,0,.03,0,.05-.02.08-.11.17-.22.25-.34-.01,0-.02,0-.03,0-.03,0-.05.01-.08.02-.09.02-.18.05-.27.07-.09.02-.18.05-.27.07-.02,0-.04.01-.06.02-.02,0-.03,0-.05.02"/>
        <path class="st1" d="M4.33,11.88c-.11.13-.23.26-.34.39.01,0,.02,0,.03,0,.03,0,.05-.01.08-.02.09-.02.18-.05.27-.07.09-.02.18-.05.27-.07.02,0,.04-.01.06-.02.02,0,.03,0,.05-.02.11-.13.23-.26.34-.39-.01,0-.02,0-.03,0-.03,0-.05.01-.08.02-.09.02-.18.05-.27.07-.09.02-.18.05-.27.07-.02,0-.04.01-.06.02-.02,0-.03,0-.05.02"/>
        <path class="st1" d="M5.3,12.94c-.13.16-.26.33-.4.49.01,0,.02,0,.03,0,.03,0,.05-.01.08-.02.09-.02.18-.05.27-.07.09-.02.18-.05.27-.07.02,0,.04-.01.06-.02.02,0,.03,0,.05-.02.13-.16.26-.33.4-.49-.01,0-.02,0-.03,0-.03,0-.05.01-.08.02-.09.02-.18.05-.27.07-.09.02-.18.05-.27.07-.02,0-.04.01-.06.02-.02,0-.03,0-.05.02"/>
        <path class="st1" d="M6.13,13.76l-.37.44s.02,0,.03,0c.03,0,.05-.01.08-.02.09-.02.18-.05.27-.07.09-.02.18-.05.27-.07.02,0,.04-.01.06-.02.02,0,.03,0,.05-.02.12-.15.24-.29.37-.44-.01,0-.02,0-.03,0-.03,0-.05.01-.08.02-.09.02-.18.05-.27.07-.09.02-.18.05-.27.07-.02,0-.04.01-.06.02-.02,0-.03,0-.05.02"/>
        <path class="st1" d="M7.11,14.6c-.17.11-.33.26-.45.43.01,0,.02,0,.03,0,.03,0,.05-.01.08-.02.09-.02.18-.05.27-.07.09-.02.18-.05.27-.07.02,0,.04-.01.06-.02.02,0,.03,0,.05-.02.12-.17.27-.31.45-.43-.01,0-.02,0-.03,0-.03,0-.05.01-.08.02-.09.02-.18.05-.27.07-.09.02-.18.05-.27.07-.02,0-.04.01-.06.02-.02,0-.03,0-.05.02"/>
        <path class="st1" d="M8.12,15.31c-.15.15-.29.29-.44.44.01,0,.02,0,.03,0,.03,0,.05-.01.08-.02.09-.02.18-.05.27-.07.09-.02.18-.05.27-.07.02,0,.04-.01.06-.02.02,0,.03,0,.05-.02l.44-.44s-.02,0-.03,0c-.03,0-.05.01-.08.02-.09.02-.18.05-.27.07-.09.02-.18.05-.27.07-.02,0-.04.01-.06.02-.02,0-.03,0-.05.02"/>
      </g>
    </g>
  </g>
</svg>